<svg width="36" height="36" viewBox="0 0 38 36" fill="none" xmlns="http://www.w3.org/2000/svg">
<path fill-rule="evenodd" clip-rule="evenodd" d="M15.8333 3C8.83772 3 3.16667 8.37258 3.16667 15C3.16667 21.6274 8.83772 27 15.8333 27C22.8289 27 28.5 21.6274 28.5 15C28.5 8.37258 22.8289 3 15.8333 3ZM0 15C0 6.71573 7.08882 0 15.8333 0C24.5778 0 31.6667 6.71573 31.6667 15C31.6667 23.2843 24.5778 30 15.8333 30C7.08882 30 0 23.2843 0 15Z" fill="black"/>
<path fill-rule="evenodd" clip-rule="evenodd" d="M25.7971 24.4393C26.4154 23.8536 27.4179 23.8536 28.0363 24.4393L37.5363 33.4393C38.1546 34.0251 38.1546 34.9749 37.5363 35.5607C36.9179 36.1464 35.9154 36.1464 35.2971 35.5607L25.7971 26.5607C25.1787 25.9749 25.1787 25.0251 25.7971 24.4393Z" fill="black"/>
</svg>
